<svg width="164" height="38" viewBox="0 0 164 38" version="1.1" xmlns="http://www.w3.org/2000/svg" xmlns:xlink="http://www.w3.org/1999/xlink">
<g id="Canvas" fill="none">
<g id="&#208;&#187;&#208;&#190;&#208;&#179;&#208;&#190;&#209;&#130;&#208;&#184;&#208;&#191;">
<g id="&#209;&#129;&#208;&#187;&#208;&#190;&#208;&#178;&#208;&#190;">
<path fill-rule="evenodd" clip-rule="evenodd" d="M 3.63199 6.98796C 4.2326 6.52762 4.91772 6.17776 5.68729 5.93839C 6.47562 5.69901 7.17947 5.57932 7.79889 5.57932C 9.6571 5.57932 10.971 6.11331 11.7406 7.1813C 12.5289 8.24929 12.9231 9.55666 12.9231 11.1034L 12.9231 19.5L 9.26294 19.5L 9.26294 11.2691C 9.26294 10.4221 9.05649 9.77762 8.64352 9.33569C 8.23059 8.87535 7.62057 8.64518 6.81348 8.64518C 6.2879 8.64518 5.74359 8.78329 5.18048 9.05949C 4.6174 9.31728 4.10123 9.6211 3.63199 9.97096L 3.63199 19.5L 0 19.5L 0 0.303825L 3.63199 0L 3.63199 6.98796ZM 62.2808 6.5L 63 9.28763C 62.3915 9.28763 61.6815 9.45739 60.8701 9.79691C 60.0772 10.1364 59.2935 10.6368 58.519 11.2979L 58.519 19.5L 54.9231 19.5L 54.9231 6.5L 56.804 6.5L 57.9934 8.40309C 58.5466 7.93848 59.2197 7.50962 60.0126 7.11649C 60.8056 6.7055 61.5616 6.5 62.2808 6.5ZM 16.173 17.7157C 17.2797 18.8882 18.8121 19.483 20.7701 19.5C 22.7793 19.483 24.3968 18.9052 25.6227 17.7667C 26.8486 16.6281 27.4615 15.0732 27.4615 13.102C 27.4615 11.1307 26.8911 9.54183 25.7504 8.3353C 24.6266 7.11176 23.0346 6.5 20.9745 6.5C 18.9824 6.5 17.4074 7.08627 16.2496 8.25883C 15.1088 9.43137 14.5385 11.0033 14.5385 12.9745C 14.5385 14.9627 15.0833 16.5431 16.173 17.7157ZM 23.2475 10.349C 23.7753 11.0118 24.0392 11.9294 24.0392 13.102C 24.0392 14.3425 23.7412 15.2516 23.1453 15.8294C 22.5494 16.3902 21.7747 16.6706 20.8212 16.6706C 19.8507 16.6706 19.1271 16.3562 18.6503 15.7274C 18.1906 15.0987 17.9608 14.1725 17.9608 12.949C 17.9608 11.7255 18.2332 10.8163 18.778 10.2216C 19.3229 9.6268 20.0806 9.32941 21.0511 9.32941C 22.0045 9.32941 22.7367 9.66928 23.2475 10.349ZM 32.3771 19.5L 27.4615 6.98248L 31.0029 6.5L 33.9627 14.3804L 36.764 6.5L 40.3846 6.5L 35.337 19.5L 32.3771 19.5ZM 126 0L 122.769 0.303825L 122.769 19.5L 126 19.5L 126 0ZM 47.9161 19.5C 45.5817 19.5 43.7382 18.9137 42.3856 17.7412C 41.0516 16.5686 40.3846 14.9967 40.3846 13.0255C 40.3846 11.0543 40.9868 9.47385 42.1911 8.28432C 43.4139 7.09477 45.0721 6.5 47.1658 6.5C 49.278 6.5 50.825 7.14575 51.8069 8.43726C 52.8075 9.71177 53.3077 11.2242 53.3077 12.9745L 53.3077 13.9941L 44.2199 13.9941C 44.3867 14.8098 44.7943 15.4641 45.4427 15.9569C 46.0912 16.4327 46.9435 16.6706 47.9995 16.6706C 48.611 16.6706 49.1575 16.6026 49.6392 16.4667C 50.1395 16.3137 50.7139 16.1013 51.3623 15.8294L 52.4184 18.2255C 51.7885 18.6673 51.0195 18.9902 50.1117 19.1941C 49.2224 19.398 48.4905 19.5 47.9161 19.5ZM 49.8893 11.7765C 49.7041 10.9438 49.3706 10.332 48.8889 9.94118C 48.4072 9.53333 47.805 9.32941 47.0824 9.32941C 46.3413 9.32941 45.7206 9.54183 45.2204 9.96667C 44.7202 10.3745 44.3959 10.9778 44.2477 11.7765L 49.8893 11.7765ZM 70.3828 9.55882C 70.9066 9.69477 71.4742 9.8987 72.0854 10.1706L 73.1071 7.8C 72.4609 7.37516 71.71 7.05229 70.8542 6.83138C 69.9985 6.61046 69.3 6.5 68.7586 6.5C 67.2393 6.5 66.0343 6.83987 65.1436 7.51961C 64.253 8.18235 63.8077 9.1 63.8077 10.2726C 63.8077 11.2922 64.253 12.1078 65.1436 12.7196C 66.0518 13.3144 67.0123 13.7732 68.0251 14.0961C 68.7411 14.317 69.2651 14.5634 69.5969 14.8353C 69.9286 15.1072 70.0946 15.4131 70.0946 15.7529C 70.0946 16.0248 69.9286 16.2458 69.5969 16.4157C 69.2651 16.5856 68.7848 16.6706 68.1561 16.6706C 67.6846 16.6706 67.1607 16.6026 66.5844 16.4667C 66.0256 16.3137 65.4406 16.1013 64.8293 15.8294L 63.8077 18.2255C 64.4014 18.6673 65.1436 18.9902 66.0343 19.1941C 66.9424 19.398 67.6671 19.5 68.2085 19.5C 69.9374 19.5 71.2472 19.1601 72.1378 18.4804C 73.046 17.8007 73.5 16.849 73.5 15.6255C 73.5 14.5549 73.046 13.6882 72.1378 13.0255C 71.2297 12.3457 70.243 11.819 69.1777 11.4451C 68.5316 11.2242 68.0601 11.0203 67.7632 10.8333C 67.4838 10.6464 67.3441 10.451 67.3441 10.2471C 67.3441 9.95817 67.4576 9.73726 67.6846 9.58431C 67.9291 9.41438 68.2697 9.32941 68.7062 9.32941C 69.3 9.32941 69.8588 9.40588 70.3828 9.55882ZM 78.3461 6.5L 78.3461 19.5L 75.1154 19.5L 75.1154 6.5L 78.3461 6.5ZM 84.2513 10.8669C 84.7339 9.98803 85.583 9.54859 86.7985 9.54859C 87.2095 9.54859 87.6385 9.64014 88.0854 9.82324C 88.5501 10.0063 88.9791 10.2352 89.3723 10.5099L 89.3723 16.662C 88.9791 16.9183 88.5501 17.1472 88.0854 17.3486C 87.6385 17.5317 87.2095 17.6232 86.7985 17.6232C 85.4937 17.6232 84.6267 17.2113 84.1978 16.3873C 83.7687 15.5634 83.5543 14.6296 83.5543 13.5859C 83.5543 12.6521 83.7866 11.7458 84.2513 10.8669ZM 92.8846 20.3148L 92.8846 7.02183L 91.0615 7.02183L 90.2571 8.12042C 89.6851 7.60775 88.9969 7.21408 88.1926 6.93944C 87.3883 6.64648 86.6644 6.5 86.0209 6.5C 84.1441 6.5 82.6606 7.17747 81.5703 8.53239C 80.4978 9.88732 79.9615 11.5718 79.9615 13.5859C 79.9615 15.6 80.4709 17.2845 81.4898 18.6394C 82.5086 19.9944 83.9654 20.6718 85.86 20.6718C 86.3963 20.6718 86.9772 20.5711 87.6028 20.3697C 88.2284 20.1866 88.8182 19.9303 89.3723 19.6007L 89.3723 20.2873C 89.3723 21.1662 89.0953 21.8528 88.5412 22.3472C 87.9871 22.8599 87.1917 23.1254 86.155 23.1437C 85.4937 23.1254 84.877 23.0247 84.305 22.8415C 83.733 22.6584 83.0449 22.3655 82.2405 21.9627L 81.1949 24.4894C 81.892 24.9655 82.7678 25.3317 83.8224 25.588C 84.877 25.8627 85.6813 26 86.2354 26C 88.5412 26 90.2214 25.4507 91.2759 24.3521C 92.3484 23.2718 92.8846 21.9261 92.8846 20.3148ZM 98.3137 8.33135C 98.9318 7.76389 99.6996 7.3168 100.617 6.99008C 101.554 6.66336 102.387 6.5 103.118 6.5C 104.972 6.5 106.283 6.99868 107.051 7.99603C 107.837 8.99339 108.231 10.2143 108.231 11.6587L 108.231 19.5L 104.579 19.5L 104.579 11.8135C 104.579 11.0225 104.373 10.4206 103.961 10.0079C 103.548 9.57804 102.949 9.3631 102.163 9.3631C 101.638 9.3631 101.086 9.49207 100.505 9.75C 99.9431 9.99074 99.4281 10.2745 98.9598 10.6012L 98.9598 19.5L 95.3077 19.5L 95.3077 6.99008L 97.218 6.99008L 98.3137 8.33135ZM 113.376 16.4667C 113.064 16.1778 112.907 15.8549 112.907 15.498C 112.907 15.0562 113.073 14.6569 113.404 14.3C 113.753 13.9431 114.24 13.7647 114.866 13.7647L 117.568 13.7647L 117.568 15.651C 117.109 16.0588 116.622 16.3647 116.107 16.5686C 115.61 16.7726 115.114 16.8745 114.617 16.8745C 114.103 16.8745 113.689 16.7386 113.376 16.4667ZM 111.032 18.4039C 111.823 19.1346 113.036 19.5 114.673 19.5C 115.334 19.5 115.996 19.3641 116.658 19.0922C 117.339 18.8203 117.927 18.5059 118.423 18.149L 119.306 19.1941L 121.154 19.1941L 121.154 11.0627C 121.154 9.73726 120.584 8.64967 119.444 7.8C 118.304 6.93333 116.934 6.5 115.334 6.5C 114.765 6.5 113.946 6.61046 112.88 6.83138C 111.832 7.03529 111.05 7.29869 110.536 7.62157L 111.501 10.3745C 111.997 10.1536 112.613 9.96667 113.349 9.81373C 114.084 9.64379 114.765 9.55882 115.39 9.55882C 116.052 9.55882 116.566 9.73726 116.934 10.0941C 117.32 10.434 117.522 10.9183 117.541 11.5471L 114.921 11.5471C 113.413 11.5471 112.19 11.8869 111.253 12.5667C 110.315 13.2464 109.846 14.2235 109.846 15.498C 109.846 16.6876 110.241 17.6562 111.032 18.4039Z" transform="translate(38 6)" fill="#333"/>
</g>
<g id="logo_icon">
<g id="3">
<path d="M 0 19L 2.33333 0L 16.3333 0L 11.6667 13.0625L 28 13.0625L 9.33333 38L 14 19L 0 19Z" fill="url(#paint0_linear)"/>
</g>
<g id="2">
<path d="M 3.5 19L 9.33333 0L 2.33333 0L 0 19L 3.5 19Z" fill="#00BFFF"/>
</g>
<g id="1">
<path d="M 9.33333 0L 4.66667 0L 0 19L 9.33333 0Z" transform="translate(9.33334 19)" fill="#00BFFF"/>
</g>
</g>
</g>
</g>
<defs>

<linearGradient id="paint0_linear" x2="1" gradientUnits="userSpaceOnUse" gradientTransform="matrix(0 38 -28 0 28 0)">
<stop stop-color="#005BEA"/>
<stop offset="1" stop-color="#00C6FB"/>
</linearGradient>

</defs>
</svg>

